PathFileType	4	(X/Y/Z)	G:\マイドライブ\biomec\experimentalData\240725\SJ3.trc
DataRate	CameraRate	NumFrames	NumMarkers	Units	OrigDataRate	OrigDataStartFrame	OrigNumFrames
200.00	200.00	      4	52	mm	200.00	1408	      1608
Frame#	Time	handR			wrRI			wrRO			elbRI			elbRO			shRF			shRU			shRB			handL			wrLI			wrLO			elbLI			elbLO			shLF			shLU			shLB			toeR			baRI			baRO			heelR			anRI			anRO			knRI			knRO			troR			toeL			baLI			baLO			heelL			anLI			anLO			knLI			knLO			troL			head			earR			earL			clav			c7			ribR			ribL			xiph			ASISR			ASISL			PSISR			PSISL			t8			t11			L1			L3			LS			COX			
		X1	Y1	Z1	X2	Y2	Z2	X3	Y3	Z3	X4	Y4	Z4	X5	Y5	Z5	X6	Y6	Z6	X7	Y7	Z7	X8	Y8	Z8	X9	Y9	Z9	X10	Y10	Z10	X11	Y11	Z11	X12	Y12	Z12	X13	Y13	Z13	X14	Y14	Z14	X15	Y15	Z15	X16	Y16	Z16	X17	Y17	Z17	X18	Y18	Z18	X19	Y19	Z19	X20	Y20	Z20	X21	Y21	Z21	X22	Y22	Z22	X23	Y23	Z23	X24	Y24	Z24	X25	Y25	Z25	X26	Y26	Z26	X27	Y27	Z27	X28	Y28	Z28	X29	Y29	Z29	X30	Y30	Z30	X31	Y31	Z31	X32	Y32	Z32	X33	Y33	Z33	X34	Y34	Z34	X35	Y35	Z35	X36	Y36	Z36	X37	Y37	Z37	X38	Y38	Z38	X39	Y39	Z39	X40	Y40	Z40	X41	Y41	Z41	X42	Y42	Z42	X43	Y43	Z43	X44	Y44	Z44	X45	Y45	Z45	X46	Y46	Z46	X47	Y47	Z47	X48	Y48	Z48	X49	Y49	Z49	X50	Y50	Z50	X51	Y51	Z51	X52	Y52	Z52	

1408	7.035	364.05435	1421.41199	1069.61707	295.41992	1446.31018	1045.34485	330.27487	1499.85547	1079.12134	182.92909	1585.16333	1217.78516	146.01256	1515.94873	1233.85840	369.63348	1424.52966	1428.70129	339.61774	1531.24341	1426.00977	339.45523	1477.36182	1460.73828	646.48956	1413.84888	1057.55505	715.31519	1449.36194	1025.28967	672.21143	1489.39612	1072.87463	835.21716	1590.44226	1178.05090	884.37976	1521.64404	1180.48401	688.97833	1418.10864	1405.12903	711.69855	1532.02380	1391.30627	727.58234	1468.41833	1432.32593	239.68991	1451.66785	39.50409	285.82486	1533.66162	46.20047	163.94670	1556.00452	50.52975	254.59142	1726.74390	110.09904	289.70792	1618.14282	154.19633	195.83708	1645.25977	155.90060	358.82990	1506.68103	492.46100	257.09201	1504.77502	512.00305	315.14841	1484.43579	909.08099	585.93457	1437.75867	52.74471	530.97113	1499.48230	57.84187	637.18872	1544.83997	44.74394	544.14148	1717.88074	56.17380	532.16766	1614.17212	148.10477	614.96765	1654.21802	120.23681	540.48370	1545.47290	494.12030	644.52972	1547.74512	495.53238	659.31805	1480.01624	874.84631	555.69946	1506.20605	1715.31262	461.33417	1404.59167	1585.36475	618.71619	1398.73303	1572.46277	530.33978	1399.16956	1405.91760	541.07770	1517.20752	1487.50000	403.89993	1425.63757	1119.44324	619.47522	1417.23438	1099.87659	520.55457	1372.21594	1248.67651	389.81705	1411.44385	986.40607	610.51575	1411.99609	976.64081	443.83206	1581.08887	1024.81384	564.71802	1575.01233	1021.14685	530.35571	1590.58643	1279.31042	520.28302	1577.88989	1153.56287	515.69647	1567.79517	1095.86755	507.99857	1573.30750	1052.18945	506.54593	1588.53271	1016.01166	498.89005	1622.37231	915.59814	
1409	7.040	362.45007	1422.89331	1068.97314	293.25302	1447.06067	1044.85291	328.85016	1501.02917	1078.55225	181.88306	1586.73486	1217.54602	144.58902	1517.75745	1233.38403	367.89389	1425.39246	1428.28003	337.82080	1532.17358	1425.82629	337.87430	1478.08972	1460.34106	644.96832	1414.54175	1057.07520	713.34204	1449.60791	1024.69263	670.70947	1489.86499	1072.40784	833.89691	1590.42053	1177.59021	883.14020	1521.31873	1180.05017	687.26123	1418.38867	1404.67480	710.25049	1532.28711	1390.83313	725.79999	1468.52087	1431.90210	239.76570	1452.05542	39.87568	286.02554	1534.09570	45.28848	164.04033	1556.36060	50.09166	255.33211	1727.71155	107.36436	290.32281	1619.44690	152.69194	196.61375	1646.93701	154.29439	358.33038	1509.78540	492.03333	256.46646	1508.64441	511.46960	313.94434	1486.10120	908.15833	585.65271	1437.83521	52.84839	530.15588	1498.46667	57.90378	637.12537	1544.80969	44.81179	544.53668	1718.22205	55.70289	532.09283	1614.70581	147.79373	615.24927	1654.96570	119.90269	539.74915	1546.94531	493.85681	644.65875	1547.44971	495.58737	657.78931	1480.63647	874.54364	554.30255	1506.51611	1714.64697	460.28586	1405.17603	1584.62109	617.02655	1399.25049	1571.83911	528.46289	1399.65918	1405.37073	539.53326	1517.58777	1487.14136	402.07996	1426.70361	1118.75537	617.80859	1417.86060	1099.43713	518.73993	1373.13892	1248.08655	388.26791	1412.35107	985.65692	608.56128	1412.77148	976.38922	442.36023	1582.09973	1024.29626	563.41931	1575.84204	1020.82709	528.95868	1591.44849	1279.13696	518.88831	1578.70398	1153.12610	514.23096	1568.81104	1095.46313	506.71896	1574.24939	1051.75671	505.02530	1589.58228	1015.64722	497.70645	1623.20813	915.11273	
1410	7.045	360.75974	1423.88025	1068.44666	291.84082	1448.54321	1044.18066	327.42929	1502.39136	1078.12415	180.54840	1588.36609	1216.99109	143.15906	1519.25977	1232.89734	366.17606	1425.95435	1427.80371	336.15363	1532.83533	1425.48206	335.95831	1478.83252	1460.03662	642.68982	1414.85254	1056.23572	711.68219	1450.14124	1024.19458	668.78149	1490.37830	1071.82312	832.88831	1590.24902	1176.98132	881.25781	1521.24768	1179.47852	685.21527	1418.65820	1403.99524	708.64642	1532.60974	1390.36829	724.21417	1468.69800	1431.37366	239.90265	1452.54553	40.26931	286.13382	1534.51514	44.44867	164.12782	1556.92407	49.52176	256.11765	1728.70630	104.69518	290.84100	1620.76733	151.21628	198.10144	1648.69824	152.55237	358.45584	1510.63721	491.13632	255.70607	1512.24951	510.80408	312.62042	1487.71594	907.42194	585.37494	1437.89380	52.93826	530.03571	1498.66406	57.89315	637.11530	1544.77307	44.85851	544.94153	1718.39124	55.18135	532.42578	1616.10608	146.80849	615.25775	1655.18762	119.59230	539.04889	1548.58752	493.50140	643.87646	1548.68530	495.60025	656.63513	1481.18445	874.33307	552.54028	1506.82605	1714.28845	458.02997	1405.74451	1584.10828	615.29242	1399.50623	1571.07471	526.52094	1400.40881	1404.87134	537.81482	1518.12952	1486.63684	400.41815	1427.87585	1118.26758	615.84320	1418.46191	1098.79248	516.72076	1374.05750	1247.50342	386.61951	1413.89709	984.82019	606.91876	1413.38269	976.07452	440.87976	1583.44287	1023.83209	562.07666	1576.44519	1020.26910	527.23901	1592.24146	1278.74780	517.31390	1579.67285	1152.79468	512.68170	1569.81519	1095.13940	505.21774	1575.27454	1051.27991	503.69482	1590.38391	1015.12872	496.81638	1624.00171	914.67212	
1411	7.050	359.74768	1425.90698	1067.51221	290.08737	1449.96973	1043.76221	326.00626	1503.75513	1077.55493	179.29529	1589.89502	1216.67773	141.64954	1520.94287	1232.23132	364.22467	1426.79456	1427.29443	334.42282	1533.71021	1425.04236	334.46667	1479.52185	1459.46179	641.05902	1415.53271	1055.73877	709.89240	1450.41101	1023.77325	667.35651	1490.71948	1071.38928	831.15259	1590.20776	1176.33679	879.78052	1521.05823	1178.91724	683.52863	1419.04443	1403.48230	706.97388	1532.76843	1389.78662	722.43274	1468.80115	1430.66101	239.93187	1452.86877	40.60157	286.35690	1534.95056	43.58921	164.75163	1557.74573	48.64370	256.80753	1729.66443	102.27181	291.42383	1622.11475	149.77740	198.71611	1650.17932	150.97470	357.55591	1515.49463	490.94870	255.23737	1515.68799	510.14365	311.36786	1489.14294	906.52173	585.30347	1437.91504	53.17313	529.89142	1498.83008	57.85078	637.07086	1544.73706	44.91158	545.14185	1718.55286	54.72323	532.37415	1616.58447	146.52937	615.23492	1655.38330	119.36934	538.41571	1549.90674	493.32028	642.49896	1550.88062	495.28403	655.56787	1481.70972	874.27277	550.95782	1507.04932	1713.57874	456.17896	1406.03992	1583.38513	613.32111	1399.61328	1570.32849	524.80835	1401.07092	1404.20801	536.21118	1518.75623	1486.25256	398.47723	1428.89917	1117.74109	614.08325	1419.36487	1098.21851	514.87018	1374.72241	1246.85229	384.59894	1414.91797	984.21381	605.26337	1414.35242	975.68427	439.44681	1584.52637	1023.31439	560.53571	1577.37476	1020.02051	525.59833	1593.00244	1278.42786	515.75775	1580.56274	1152.43237	511.16986	1570.82996	1094.65991	503.95740	1576.29358	1050.84094	502.32483	1591.34558	1014.63385	495.57233	1624.97449	914.20862	
